name processed_emg_signals
nRows=115
nColumns=6
 
endheader
time	RGLTMED	RRF	RADDLONG	RTA	RGM
0.001	0.0106001055960746	0.0394193397979652	0.2165103260175272	0.2498639530721547	0.083852237459888
0.002	0.0054190863809412	0.043110501394881	0.2240904106990643	0.2673690235933658	0.089335856891248
0.003	0.0002364044405699	0.046821837110096	0.2317039472449215	0.2848603011802663	0.0948567879094657
0.004	0.0049450410862635	0.0505511031302387	0.2393460553226756	0.3023262851672825	0.1004105831669093
0.005	0.0101223511927753	0.0542960225361288	0.2470118270531738	0.3197554756566855	0.1059927641892542
0.006	0.0152926306654291	0.0580542880250192	0.2546963355643837	0.3371363907657588	0.1115988307250602
0.007	0.0204529917269713	0.061823564703001	0.2623946435913327	0.3544575839905123	0.1172242699757581
0.008	0.0256005576537024	0.0656014929433068	0.2701018120900609	0.371707661648511	0.122864565648701
0.009000000000000001	0.030732466360019	0.0693856913061974	0.2778129088339248	0.3888753003639001	0.1285152067841229
0.010000000000000002	0.0358458739439221	0.073173759516032	0.2855230169608285	0.4059492645577508	0.1341716963138882
0.011	0.0409379581878952	0.0769632814909538	0.2932272434405146	0.4229184239070482	0.1398295593167061
0.012	0.0460059220098357	0.0807518284204705	0.3009207274319312	0.4397717707358221	0.1454843509413871
0.013000000000000001	0.0510469968589913	0.0845369618861869	0.3085986485022801	0.4564984373019818	0.1511316639773969
0.014000000000000002	0.0560584460520562	0.0883162370207931	0.3162562346809141	0.4730877129435842	0.1567671360599358
0.015	0.0610375680446923	0.0920872057007178	0.3238887703233741	0.4895290610477592	0.1623864565035688
0.016	0.0659816996342652	0.0958474197678007	0.3314916037625688	0.5058121358051343	0.167985372763527
0.017	0.0708882190895959	0.0995944342756833	0.3390601547255138	0.521926798711864	0.1735596965268634
0.018000000000000002	0.0757545492040222	0.1033258107565198	0.346589921494683	0.537863134780886	0.1791053094371911
0.019000000000000003	0.0805781602681221	0.1070391205037932	0.3540764877932859	0.5536114684235597	0.1846181684581204
0.02	0.0853565729590118	0.1107319478668569	0.3615155293740459	0.5691623789622695	0.1900943108812865
0.021	0.0900873611434309	0.1144018935531362	0.3689028202921031	0.5845067157339504	0.1955298589862908
0.022000000000000002	0.0947681545925047	0.1180465779338635	0.3762342388435444	0.599635612743809	0.2009210243605199
0.023	0.099396641606612	0.1216636443494762	0.3835057731521245	0.6145405028280689	0.2062641118875719
0.024	0.103970571549172	0.1252507624107399	0.3907135263868252	0.6292131312841203	0.211555523413192
0.025	0.1084877572885491	0.1288056312915423	0.3978537215934141	0.6436455689262569	0.2167917610980762
0.026000000000000002	0.1129460775473129	0.1323259830092943	0.4049227061235398	0.6578302245249344	0.2219694304673161
0.027000000000000003	0.1173434791583387	0.1358095856885605	0.411916955646488	0.6717598565879286	0.2270852431664158
0.028	0.1216779792272753	0.1392542468033797	0.418833077731356	0.6854275844428382	0.2321360194340607
0.029	0.1259476672013006	0.1426578163934008	0.4256678149911708	0.6988268985825009	0.237118690301598
0.030000000000000002	0.1301507068438483	0.1460181902487695	0.4324180477853936	0.7119516702387414	0.2420302995293762
0.031	0.134285338115215	0.149333313058511	0.4390807964823019	0.7247961601558933	0.2468680052903462
0.032	0.1383498789587122	0.1526011815170387	0.4456532232882828	0.7373550265435659	0.2516290816118173
0.033	0.1423427269920937	0.1558198473832246	0.4521326336563541	0.7496233321954465	0.2563109195865806
0.034	0.1462623611039999	0.1589874204864897	0.4585164772911884	0.7615965507663603	0.2609110283650812
0.035	0.1501073429550816	0.1621020716741011	0.4648023487718252	0.7732705722022497	0.2654270359403552
0.036000000000000004	0.1538763183836401	0.1651620356937122	0.470987987815843	0.7846417073190312	0.2698566897373318
0.037000000000000005	0.1575680187153875	0.1681656140049081	0.4770712792104035	0.7957066915260486	0.2741978570179056
0.038	0.161181261976878	0.1711111775134088	0.4830502524362547	0.8064626876888218	0.2784485251129991
0.039	0.1647149540118365	0.173997169221607	0.4889230810109018	0.8169072881240089	0.2826068014924396
0.04	0.1681680894994477	0.1768221067891843	0.4946880815768417	0.8270385157181586	0.2866709136832543
0.041	0.171539752873637	0.1795845849975306	0.500343712759623	0.8368548241613696	0.2906392090466152
0.042	0.174829119142054	0.1822832781113742	0.50588857381926	0.8463550972880636	0.2945101544233122
0.043000000000000003	0.1780354546035185	0.1849169421307323	0.5113214031169905	0.8555386475186186	0.2982823356573023
0.044000000000000004	0.1811581174622823	0.187484416925978	0.5166410764175479	0.8644052133985887	0.3019544570066236
0.045	0.1841965583374743	0.1899846282484684	0.5218466050455343	0.8729549562357373	0.3055253404508761
0.046	0.187150320665818	0.1924165896088629	0.526937133912642	0.8811884558396282	0.3089939249039127
0.047	0.1900190409957581	0.1947794040150083	0.5319119394309361	0.8891067053726098	0.3123592653401744
0.048	0.1928024491707709	0.1970722655610154	0.536770427325882	0.8967111053239458	0.3156205318422447
0.049	0.1955003683994584	0.1992944608589122	0.5415121303609984	0.9040034566204456	0.3187770085767977
0.05	0.198112715209488	0.2014453703043291	0.5461367059845588	0.910985952888174	0.3218280927055585
0.051000000000000004	0.2006394992822516	0.2035244691673832	0.5506439339067304	0.9176611718809492	0.324773293237642
0.052000000000000005	0.2030808231645444	0.2055313284997761	0.5550337136142329	0.924032066092864	0.32761222982923
0.053000000000000005	0.2054368818534556	0.2074656158489053	0.5593060618280822	0.9301019525739628	0.3303446315361621
0.054	0.2077079622501974	0.2093270957695705	0.5634611099090049	0.9358745019696167	0.3329703355242775
0.055	0.209894442478233	0.2111156301240581	0.5674991012146434	0.9413537268050932	0.3354892857414126
0.056	0.2119967910608433	0.2128311781611756	0.5714203884125879	0.946543969036454	0.3379015315543786
0.057	0.2140155659527042	0.2144737963651345	0.5752254307538693	0.9514498868878292	0.3402072263532008
0.058	0.2159514134201076	0.216043638065626	0.5789147913112863	0.9560764409944214	0.3424066261243725
0.059000000000000004	0.2178050667638841	0.2175409528018571	0.5824891341860239	0.9604288798722372	0.3445000879942511
0.060000000000000005	0.219577344879243	0.2189660854351247	0.585949221684277	0.964512724741263	0.3464880687428422
0.061	0.221269150646654	0.2203194750069349	0.5892959114639191	0.9683337537397252	0.3483711232876345
0.062	0.2228814691483278	0.2216016533411755	0.5925301536492464	0.9718979855799176	0.3501499031361343
0.063	0.2244153657058258	0.2228132433911112	0.5956529879107029	0.975211662707938	0.3518251548050871
0.064	0.2258719837353729	0.2239549573335958	0.5986655405052245	0.9782812340381196	0.3533977182033859
0.065	0.2272525424192999	0.2250275944156745	0.601569021272003	0.9811133373372688	0.3548685249750888
0.066	0.2285583341939537	0.226032038561451	0.6043647205775788	0.9837147813348444	0.3562385967986022
0.067	0.2297907220569056	0.226969255750079	0.6070540062030101	0.9860925276337296	0.3575090436377956
0.068	0.2309511366989341	0.2278402911784302	0.6096383201648077	0.9882536724943334	0.3586810619404527
0.069	0.2320410734680915	0.2286462662235324	0.6121191754606922	0.9902054285623304	0.3597559327788519
0.07	0.2330620891746919	0.2293883752213591	0.6144981527308638	0.9919551066081588	0.3607350199265174
0.07100000000000001	0.234015798747435	0.2300678820790951	0.616776896826651	0.9935100973441456	0.3616197678645014
0.07200000000000001	0.2349038717520609	0.2306861167390727	0.618957113280589	0.9948778533829402	0.3624116997106889
0.07300000000000001	0.2357280287853236	0.2312444715124846	0.6210405646768075	0.9960658713983388	0.3631124150666512
0.074	0.2364900377574531	0.2317443973009708	0.6230290669270729	0.9970816745472858	0.3637235877786043
0.075	0.2371917100767488	0.2321873997236582	0.624924485464268	0.9979327952092064	0.3642469636113857
0.076	0.2378348967497119	0.2325750351664727	0.6267287313690872	0.9986267580958936	0.364684357836584
0.077	0.2384214844103817	0.2329089067700325	0.6284437574475932	0.9991710637826708	0.3650376527371928
0.078	0.2389533912918026	0.2331906603714791	0.630071554277459	0.9995731727085874	0.3653087950317455
0.079	0.2394325631525554	0.2334219804149079	0.6316141462405184	0.9998404896908012	0.365499793220738
0.08	0.239860969170466	0.2336045858442723	0.6330735875589846	0.9999803489949586	0.3656127148579942
0.081	0.240240597815556	0.2337402259917549	0.6344519583521177	1.0	0.3656496837491818
0.082	0.2405734527138107	0.2338306764739187	0.6357513607298079	0.9999065934922264	0.3656128770792205
0.083	0.2408615485134417	0.2338777351073782	0.6369739149389302	0.9997071686200072	0.3655045224698795
0.084	0.2411069067649732	0.2338832178548073	0.6381217555782712	0.9994086405372984	0.3653268949682884
0.085	0.2413115518266076	0.2338489548117085	0.6391970278974307	0.999017788761012	0.3650823139669138
0.08600000000000001	0.241477506805905	0.233776786243426	0.6402018841946144	0.9985412462643058	0.3647731400546915
0.08700000000000001	0.2416067895488913	0.2336685586814403	0.6411384803270471	0.9979854893248544	0.3644017717987158
0.08800000000000001	0.2417014086871563	0.2335261210873311	0.6420089723463978	0.9973568281440912	0.3639706424547584
0.089	0.2417633597531669	0.2333513210927744	0.6428155132701172	0.9966613982502776	0.3634822166046447
0.09	0.2417946213735652	0.2331460013237264	0.6435602499982651	0.9959051526951636	0.3629389867183702
0.091	0.2417971515498969	0.2329119958167367	0.6442453203841831	0.99509385505081	0.36234346963937
0.092	0.2417728840358485	0.2326511265348891	0.6448728504662482	0.9942330732102002	0.3616982029922142
0.093	0.2417237248197051	0.2323651999902423	0.6454449518669467	0.99332817399225	0.3610057415126624
0.094	0.2416515487207126	0.2320560039789652	0.6459637193644402	0.9923843185485274	0.3602686533007405
0.095	0.2415581961075705	0.2317253044347208	0.646431228640207	0.9914064585658536	0.3594895159981046
0.096	0.241445469747353	0.2313748424056425	0.6468495342048652	0.9903993332558588	0.3586709128914853
0.097	0.2413151317927296	0.2310063311597295	0.6472206675019817	0.9893674671199746	0.3578154289453403
0.098	0.2411689009149151	0.2306214534232754	0.6475466351878836	0.9883151684761506	0.356925646769103
0.099	0.2410084495892772	0.2302218587560519	0.6478294175830552	0.9872465287314228	0.3560041425277606
0.1	0.2408354015401512	0.2298091610665827	0.6480709672891476	0.9861654223825748	0.3550534818077412
0.101	0.2406513293508988	0.2293849362698208	0.6482732079636746	0.9850755077251552	0.3540762154525367
0.10200000000000001	0.2404577522449265	0.2289507200891806	0.648438033243351	0.9839802282498736	0.3530748753837279
0.10300000000000001	0.2402561340427677	0.2285080060039942	0.648567305805815	0.9828828147040852	0.3520519704237622
0.10400000000000001	0.240047881299749	0.2280582433431951	0.6486628565591276	0.9817862877943508	0.3510099821373634
0.10500000000000001	0.2398343416283572	0.2276028355252727	0.6487264839480917	0.9806934615037546	0.3499513607084084
0.106	0.2396168022086966	0.2271431384440847	0.6487599533661761	0.9796069469946488	0.3488785208691369
0.107	0.2393964884901636	0.2266804589994039	0.6487649966608935	0.9785291570642374	0.3477938378980293
0.108	0.2391745630867597	0.226216053770706	0.6487433117192151	0.9774623111171564	0.3466996437021689
0.109	0.2389521248679534	0.2257511278321101	0.6486965621185301	0.9764084406160156	0.3455982229990689
0.11	0.2387302082463461	0.2252868337064865	0.6486263768286209	0.975369394967708	0.3444918096121417
0.111	0.2385097826626343	0.2248242704568504	0.6485343499510744	0.9743468478000784	0.3433825828931364
0.112	0.2382917522678473	0.2243644829136608	0.6484220404835896	0.973342303580211	0.3422726642836631
0.113	0.2380769558020224	0.2239084610371446	0.6482909720970175	0.9723571045228026	0.3411641140269599
0.114	0.2378661666681284	0.2234571394140543	0.648142632912179	0.9713924377339778	0.3400589280397004
0.115	0.2376600931992998	0.2230113968887485	0.6479784752621236	0.9704493425339428	0.3389590349525783
